<svg width="321" height="121" viewBox="0 0 321 121" fill="none" xmlns="http://www.w3.org/2000/svg">
<path d="M23.85 50.56C25.77 47.8 27.06 45.85 27.72 44.71C28.44 43.51 28.92 42.31 29.16 41.11C29.4 39.91 29.52 38.17 29.52 35.89V29.59C29.52 27.73 28.83 26.14 27.45 24.82C26.07 23.5 24.27 22.84 22.05 22.84H11.25V16H21.15C26.37 16 30.36 17.29 33.12 19.87C35.94 22.39 37.35 26.2 37.35 31.3V35.08C37.35 38.08 37.14 40.51 36.72 42.37C36.3 44.23 35.7 45.88 34.92 47.32C34.14 48.76 32.85 50.77 31.05 53.35L17.73 72.16H39.15V79H9.45V71.08L23.85 50.56Z" fill="white"/>
<path d="M23.85 50.56L26.3057 52.2833L26.3127 52.2732L23.85 50.56ZM27.72 44.71L25.1475 43.1665L25.1355 43.1866L25.1237 43.2069L27.72 44.71ZM29.16 41.11L26.2183 40.5216V40.5217L29.16 41.11ZM27.45 24.82L29.5237 22.6521L29.5237 22.6521L27.45 24.82ZM11.25 22.84H8.25V25.84H11.25V22.84ZM11.25 16V13H8.25V16H11.25ZM33.12 19.87L31.0714 22.0616L31.0959 22.0846L31.121 22.107L33.12 19.87ZM36.72 42.37L39.6463 43.0308L36.72 42.37ZM34.92 47.32L32.2821 45.8911L32.2821 45.8912L34.92 47.32ZM31.05 53.35L33.4983 55.0837L33.5044 55.0752L33.5104 55.0665L31.05 53.35ZM17.73 72.16L15.2817 70.4263L11.9296 75.16H17.73V72.16ZM39.15 72.16H42.15V69.16H39.15V72.16ZM39.15 79V82H42.15V79H39.15ZM9.45 79H6.45V82H9.45V79ZM9.45 71.08L6.99433 69.3567L6.45 70.1324V71.08H9.45ZM26.3127 52.2732C28.2296 49.5177 29.5862 47.4741 30.3163 46.2131L25.1237 43.2069C24.5338 44.2259 23.3104 46.0823 21.3873 48.8468L26.3127 52.2732ZM30.2925 46.2535C31.1644 44.8003 31.7854 43.2802 32.1017 41.6983L26.2183 40.5217C26.0546 41.3398 25.7156 42.2197 25.1475 43.1665L30.2925 46.2535ZM32.1017 41.6983C32.4005 40.2047 32.52 38.2295 32.52 35.89H26.52C26.52 38.1104 26.3995 39.6152 26.2183 40.5216L32.1017 41.6983ZM32.52 35.89V29.59H26.52V35.89H32.52ZM32.52 29.59C32.52 26.8869 31.4775 24.521 29.5237 22.6521L25.3763 26.9879C26.1825 27.759 26.52 28.5731 26.52 29.59H32.52ZM29.5237 22.6521C27.495 20.7116 24.9078 19.84 22.05 19.84V25.84C23.6322 25.84 24.645 26.2884 25.3763 26.9879L29.5237 22.6521ZM22.05 19.84H11.25V25.84H22.05V19.84ZM14.25 22.84V16H8.25V22.84H14.25ZM11.25 19H21.15V13H11.25V19ZM21.15 19C25.9024 19 29.0494 20.1715 31.0714 22.0616L35.1687 17.6784C31.6706 14.4085 26.8376 13 21.15 13V19ZM31.121 22.107C33.1036 23.8787 34.35 26.7423 34.35 31.3H40.35C40.35 25.6577 38.7764 20.9013 35.119 17.633L31.121 22.107ZM34.35 31.3V35.08H40.35V31.3H34.35ZM34.35 35.08C34.35 37.9688 34.1451 40.1527 33.7937 41.7092L39.6463 43.0308C40.1349 40.8673 40.35 38.1912 40.35 35.08H34.35ZM33.7937 41.7092C33.4245 43.344 32.9119 44.7286 32.2821 45.8911L37.5579 48.7488C38.4881 47.0314 39.1755 45.116 39.6463 43.0308L33.7937 41.7092ZM32.2821 45.8912C31.5844 47.1792 30.3723 49.0783 28.5896 51.6335L33.5104 55.0665C35.3277 52.4617 36.6956 50.3408 37.5579 48.7488L32.2821 45.8912ZM28.6017 51.6163L15.2817 70.4263L20.1783 73.8937L33.4983 55.0837L28.6017 51.6163ZM17.73 75.16H39.15V69.16H17.73V75.16ZM36.15 72.16V79H42.15V72.16H36.15ZM39.15 76H9.45V82H39.15V76ZM12.45 79V71.08H6.45V79H12.45ZM11.9057 72.8033L26.3057 52.2833L21.3943 48.8367L6.99433 69.3567L11.9057 72.8033Z" fill="black"/>
<path d="M30.85 50.56C32.77 47.8 34.06 45.85 34.72 44.71C35.44 43.51 35.92 42.31 36.16 41.11C36.4 39.91 36.52 38.17 36.52 35.89V29.59C36.52 27.73 35.83 26.14 34.45 24.82C33.07 23.5 31.27 22.84 29.05 22.84H18.25V16H28.15C33.37 16 37.36 17.29 40.12 19.87C42.94 22.39 44.35 26.2 44.35 31.3V35.08C44.35 38.08 44.14 40.51 43.72 42.37C43.3 44.23 42.7 45.88 41.92 47.32C41.14 48.76 39.85 50.77 38.05 53.35L24.73 72.16H46.15V79H16.45V71.08L30.85 50.56Z" fill="white"/>
<path d="M30.85 50.56L33.3057 52.2833L33.3127 52.2732L30.85 50.56ZM34.72 44.71L32.1475 43.1665L32.1355 43.1866L32.1237 43.2069L34.72 44.71ZM36.16 41.11L33.2183 40.5216V40.5217L36.16 41.11ZM34.45 24.82L36.5237 22.6521L36.5237 22.6521L34.45 24.82ZM18.25 22.84H15.25V25.84H18.25V22.84ZM18.25 16V13H15.25V16H18.25ZM40.12 19.87L38.0714 22.0616L38.0959 22.0846L38.121 22.107L40.12 19.87ZM43.72 42.37L46.6463 43.0308L43.72 42.37ZM41.92 47.32L39.2821 45.8911L39.2821 45.8912L41.92 47.32ZM38.05 53.35L40.4983 55.0837L40.5044 55.0752L40.5104 55.0665L38.05 53.35ZM24.73 72.16L22.2817 70.4263L18.9296 75.16H24.73V72.16ZM46.15 72.16H49.15V69.16H46.15V72.16ZM46.15 79V82H49.15V79H46.15ZM16.45 79H13.45V82H16.45V79ZM16.45 71.08L13.9943 69.3567L13.45 70.1324V71.08H16.45ZM33.3127 52.2732C35.2296 49.5177 36.5862 47.4741 37.3163 46.2131L32.1237 43.2069C31.5338 44.2259 30.3104 46.0823 28.3873 48.8468L33.3127 52.2732ZM37.2925 46.2535C38.1644 44.8003 38.7854 43.2802 39.1017 41.6983L33.2183 40.5217C33.0546 41.3398 32.7156 42.2197 32.1475 43.1665L37.2925 46.2535ZM39.1017 41.6983C39.4005 40.2047 39.52 38.2295 39.52 35.89H33.52C33.52 38.1104 33.3995 39.6152 33.2183 40.5216L39.1017 41.6983ZM39.52 35.89V29.59H33.52V35.89H39.52ZM39.52 29.59C39.52 26.8869 38.4775 24.521 36.5237 22.6521L32.3763 26.9879C33.1825 27.759 33.52 28.5731 33.52 29.59H39.52ZM36.5237 22.6521C34.495 20.7116 31.9078 19.84 29.05 19.84V25.84C30.6322 25.84 31.645 26.2884 32.3763 26.9879L36.5237 22.6521ZM29.05 19.84H18.25V25.84H29.05V19.84ZM21.25 22.84V16H15.25V22.84H21.25ZM18.25 19H28.15V13H18.25V19ZM28.15 19C32.9024 19 36.0494 20.1715 38.0714 22.0616L42.1687 17.6784C38.6706 14.4085 33.8376 13 28.15 13V19ZM38.121 22.107C40.1036 23.8787 41.35 26.7423 41.35 31.3H47.35C47.35 25.6577 45.7764 20.9013 42.119 17.633L38.121 22.107ZM41.35 31.3V35.08H47.35V31.3H41.35ZM41.35 35.08C41.35 37.9688 41.1451 40.1527 40.7937 41.7092L46.6463 43.0308C47.1349 40.8673 47.35 38.1912 47.35 35.08H41.35ZM40.7937 41.7092C40.4245 43.344 39.9119 44.7286 39.2821 45.8911L44.5579 48.7488C45.4881 47.0314 46.1755 45.116 46.6463 43.0308L40.7937 41.7092ZM39.2821 45.8912C38.5844 47.1792 37.3723 49.0783 35.5896 51.6335L40.5104 55.0665C42.3277 52.4617 43.6956 50.3408 44.5579 48.7488L39.2821 45.8912ZM35.6017 51.6163L22.2817 70.4263L27.1783 73.8937L40.4983 55.0837L35.6017 51.6163ZM24.73 75.16H46.15V69.16H24.73V75.16ZM43.15 72.16V79H49.15V72.16H43.15ZM46.15 76H16.45V82H46.15V76ZM19.45 79V71.08H13.45V79H19.45ZM18.9057 72.8033L33.3057 52.2833L28.3943 48.8367L13.9943 69.3567L18.9057 72.8033Z" fill="black"/>
<path d="M113.941 13H88.843V85H113.941V13Z" fill="#C4C4C4"/>
<path d="M151.588 31H126.49V85H151.588V31Z" fill="#C4C4C4"/>
<path d="M226.882 13H201.784V85H226.882V13Z" fill="#C4C4C4"/>
<path d="M189.235 31H164.137V85H189.235V31Z" fill="#C4C4C4"/>
<path d="M226.882 49H88.843V85H226.882V49Z" fill="#C4C4C4"/>
<path d="M15.8081 107.47L14.114 115H11.1963L8.3728 100H11.0395L12.8277 111.91L14.8983 102.7H16.9375L18.8199 111.91L20.6081 100H23.1179L20.3257 115H17.314L15.8081 107.47ZM56.6564 115C54.8158 115 53.4668 114.63 52.6093 113.89C51.7518 113.13 51.3231 111.9 51.3231 110.2V104.8C51.3231 103.08 51.71 101.85 52.4839 101.11C53.2577 100.37 54.544 100 56.3427 100H57.8172C59.3021 100 60.4211 100.4 61.1741 101.2C61.9479 101.98 62.3348 103.13 62.3348 104.65V108.55H53.9897V110.8C53.9897 111.42 54.1884 111.9 54.5858 112.24C54.9832 112.58 55.5688 112.75 56.3427 112.75H61.3309V115H56.6564ZM59.7309 104.05C59.7309 103.53 59.5531 103.1 59.1976 102.76C58.842 102.42 58.3923 102.25 57.8486 102.25H56.029C55.276 102.25 54.7427 102.42 54.429 102.76C54.1361 103.08 53.9897 103.56 53.9897 104.2V106.3H59.7309V104.05ZM103.685 110.2C103.685 111.88 103.246 113.1 102.367 113.86C101.51 114.62 100.171 115 98.3518 115H92.2028V94H94.8694V100.6C95.4969 100.2 96.2812 100 97.2224 100H98.3518C100.192 100 101.541 100.38 102.399 101.14C103.257 101.88 103.685 103.1 103.685 104.8V110.2ZM96.9086 102.25C96.2184 102.25 95.7058 102.43 95.3714 102.79C95.0369 103.13 94.8694 103.5 94.8694 103.9V112.75H98.6655C99.4391 112.75 100.025 112.58 100.422 112.24C100.82 111.9 101.018 111.42 101.018 110.8V104.2C101.018 103.58 100.82 103.1 100.422 102.76C100.025 102.42 99.4391 102.25 98.6655 102.25H96.9086ZM143.812 111.25C143.812 112.51 143.404 113.45 142.588 114.07C141.793 114.69 140.633 115 139.106 115H134.431V112.75H139.42C139.984 112.75 140.413 112.64 140.706 112.42C140.999 112.18 141.145 111.84 141.145 111.4V109.81C141.145 108.91 140.695 108.46 139.796 108.46H138.635C137.172 108.46 136.074 108.16 135.341 107.56C134.63 106.94 134.275 105.97 134.275 104.65V103.78C134.275 102.44 134.672 101.48 135.467 100.9C136.262 100.3 137.433 100 138.98 100H143.184V102.25H138.667C138.144 102.25 137.726 102.37 137.412 102.61C137.098 102.83 136.941 103.16 136.941 103.6V104.68C136.941 105.14 137.077 105.48 137.349 105.7C137.642 105.92 138.008 106.03 138.447 106.03H139.514C140.915 106.03 141.982 106.36 142.714 107.02C143.446 107.66 143.812 108.62 143.812 109.9V111.25ZM181.617 94V96.7H178.637V94H181.617ZM174.182 102.25V100H181.46V112.75H186.103V115H178.794V102.25H174.182ZM222.403 115C221.336 115 220.52 114.67 219.956 114.01C219.391 113.35 219.108 112.48 219.108 111.4V102.25H216.128V100H219.108V96.4H221.775V100H226.356V102.25H221.775V111.55C221.775 111.99 221.89 112.3 222.12 112.48C222.35 112.66 222.706 112.75 223.187 112.75H226.356V115H222.403ZM262.153 115C260.312 115 258.963 114.63 258.106 113.89C257.248 113.13 256.82 111.9 256.82 110.2V104.8C256.82 103.08 257.206 101.85 257.98 101.11C258.754 100.37 260.04 100 261.839 100H263.314C264.798 100 265.918 100.4 266.671 101.2C267.444 101.98 267.831 103.13 267.831 104.65V108.55H259.486V110.8C259.486 111.42 259.684 111.9 260.082 112.24C260.479 112.58 261.065 112.75 261.839 112.75H266.827V115H262.153ZM265.227 104.05C265.227 103.53 265.049 103.1 264.694 102.76C264.338 102.42 263.888 102.25 263.345 102.25H261.525C260.772 102.25 260.239 102.42 259.925 102.76C259.632 103.08 259.486 103.56 259.486 104.2V106.3H265.227V104.05ZM308.209 111.25C308.209 112.51 307.801 113.45 306.986 114.07C306.191 114.69 305.03 115 303.503 115H298.829V112.75H303.817C304.382 112.75 304.81 112.64 305.103 112.42C305.396 112.18 305.542 111.84 305.542 111.4V109.81C305.542 108.91 305.092 108.46 304.193 108.46H303.033C301.568 108.46 300.47 108.16 299.738 107.56C299.027 106.94 298.672 105.97 298.672 104.65V103.78C298.672 102.44 299.069 101.48 299.864 100.9C300.658 100.3 301.83 100 303.378 100H307.582V102.25H303.064C302.541 102.25 302.123 102.37 301.809 102.61C301.495 102.83 301.338 103.16 301.338 103.6V104.68C301.338 105.14 301.474 105.48 301.746 105.7C302.039 105.92 302.405 106.03 302.844 106.03H303.911C305.312 106.03 306.379 106.36 307.111 107.02C307.843 107.66 308.209 108.62 308.209 109.9V111.25Z" fill="black"/>
<path d="M38.49 50.56C40.4978 47.8 41.8468 45.85 42.537 44.71C43.29 43.51 43.7919 42.31 44.0429 41.11C44.2939 39.91 44.4194 38.17 44.4194 35.89V29.59C44.4194 27.73 43.6978 26.14 42.2547 24.82C40.8115 23.5 38.9292 22.84 36.6076 22.84H25.3135V16H35.6664C41.1253 16 45.2978 17.29 48.1841 19.87C51.1331 22.39 52.6076 26.2 52.6076 31.3V35.08C52.6076 38.08 52.388 40.51 51.9488 42.37C51.5096 44.23 50.8821 45.88 50.0665 47.32C49.2508 48.76 47.9017 50.77 46.0194 53.35L32.09 72.16H54.49V79H23.4312V71.08L38.49 50.56ZM80.1879 55.78V79H71.9996V16H80.1879V43.18L98.0702 16H107.011L88.8467 43.81L108.141 79H98.729L83.7643 50.65L80.1879 55.78ZM145.039 16V24.1H136.098V16H145.039ZM122.733 40.75V34H144.568V72.25H158.498V79H136.568V40.75H122.733ZM181.748 34V36.16C183.693 34.72 186.203 34 189.278 34H193.607C198.69 34 202.454 35.14 204.901 37.42C207.411 39.7 208.666 43.36 208.666 48.4V79H200.666V46.6C200.666 44.8 200.101 43.39 198.972 42.37C197.905 41.29 196.431 40.75 194.548 40.75H188.337C186.266 40.75 184.729 41.29 183.725 42.37C182.721 43.39 182.219 44.5 182.219 45.7V79H174.219V34H181.748ZM260.81 82.15C260.81 86.23 259.524 89.26 256.952 91.24C254.442 93.28 250.489 94.3 245.093 94.3H225.516V87.55H246.034C248.293 87.55 249.987 87.13 251.116 86.29C252.246 85.45 252.81 84.37 252.81 83.05V80.17C252.81 78.79 252.246 77.71 251.116 76.93C249.987 76.09 248.293 75.67 246.034 75.67H229.751V63.25C227.681 62.17 226.144 60.61 225.14 58.57C224.136 56.53 223.634 53.89 223.634 50.65V48.4C223.634 43.36 224.92 39.7 227.493 37.42C230.128 35.14 234.175 34 239.634 34H259.399V50.65C259.399 55.15 258.112 58.69 255.54 61.27C252.967 63.79 249.548 65.05 245.281 65.05H237.751V68.92H245.093C250.489 68.92 254.442 69.94 256.952 71.98C259.524 73.96 260.81 76.99 260.81 81.07V82.15ZM245.281 58.3C247.226 58.3 248.701 57.7 249.704 56.5C250.708 55.3 251.273 54.04 251.399 52.72V40.75H238.693C236.371 40.75 234.614 41.26 233.422 42.28C232.23 43.3 231.634 44.74 231.634 46.6V52.45C231.634 54.31 232.23 55.75 233.422 56.77C234.614 57.79 236.371 58.3 238.693 58.3H245.281ZM307.402 67.75C307.402 71.53 306.179 74.35 303.732 76.21C301.347 78.07 297.865 79 293.285 79H279.261V72.25H294.226C295.92 72.25 297.206 71.92 298.085 71.26C298.963 70.54 299.402 69.52 299.402 68.2V63.43C299.402 60.73 298.053 59.38 295.355 59.38H291.873C287.481 59.38 284.187 58.48 281.991 56.68C279.857 54.82 278.791 51.91 278.791 47.95V45.34C278.791 41.32 279.983 38.44 282.367 36.7C284.751 34.9 288.265 34 292.908 34H305.52V40.75H291.967C290.398 40.75 289.143 41.11 288.202 41.83C287.261 42.49 286.791 43.48 286.791 44.8V48.04C286.791 49.42 287.198 50.44 288.014 51.1C288.893 51.76 289.991 52.09 291.308 52.09H294.508C298.712 52.09 301.912 53.08 304.108 55.06C306.304 56.98 307.402 59.86 307.402 63.7V67.75Z" fill="black"/>
<path d="M38.49 50.56L41.0581 52.2833L41.0654 52.2732L38.49 50.56ZM42.5371 44.71L39.8466 43.1663L39.822 43.2069L42.5371 44.71ZM44.043 41.11L40.9666 40.5216L44.043 41.11ZM42.2547 24.82L44.4233 22.6521L42.2547 24.82ZM25.3136 22.84H22.1763V25.84H25.3136V22.84ZM25.3136 16V13H22.1763V16H25.3136ZM48.1841 19.87L46.0412 22.0621L46.0937 22.107L48.1841 19.87ZM51.9489 42.37L55.0091 43.0308L51.9489 42.37ZM50.0665 47.32L47.3079 45.8912L50.0665 47.32ZM46.0194 53.35L48.5798 55.0838L48.5924 55.0665L46.0194 53.35ZM32.09 72.16L29.5297 70.426L26.0242 75.16H32.09V72.16ZM54.49 72.16H57.6273V69.16H54.49V72.16ZM54.49 79V82H57.6273V79H54.49ZM23.4312 79H20.2939V82H23.4312V79ZM23.4312 71.08L20.8632 69.3568L20.2939 70.1326V71.08H23.4312ZM41.0654 52.2732C43.07 49.5177 44.4887 47.4741 45.2521 46.2131L39.822 43.2069C39.2051 44.2259 37.9258 46.0823 35.9147 48.8468L41.0654 52.2732ZM45.2273 46.2535C46.139 44.8004 46.7884 43.2801 47.1193 41.6984L40.9666 40.5216C40.7955 41.3399 40.441 42.2196 39.8469 43.1665L45.2273 46.2535ZM47.1193 41.6984C47.4317 40.2047 47.5567 38.2296 47.5567 35.89H41.2822C41.2822 38.1104 41.1562 39.6152 40.9666 40.5216L47.1193 41.6984ZM47.5567 35.89V29.59H41.2822V35.89H47.5567ZM47.5567 29.59C47.5567 26.8869 46.4666 24.521 44.4233 22.6521L40.0862 26.9879C40.9292 27.759 41.2822 28.5731 41.2822 29.59H47.5567ZM44.4233 22.6521C42.3018 20.7116 39.5962 19.84 36.6077 19.84V25.84C38.2623 25.84 39.3214 26.2884 40.0862 26.9879L44.4233 22.6521ZM36.6077 19.84H25.3136V25.84H36.6077V19.84ZM28.4508 22.84V16H22.1763V22.84H28.4508ZM25.3136 19H35.6665V13H25.3136V19ZM35.6665 19C40.6363 19 43.9273 20.1715 46.0418 22.0616L50.3265 17.6784C46.6684 14.4085 41.6143 13 35.6665 13V19ZM46.0937 22.107C48.167 23.8787 49.4704 26.7423 49.4704 31.3H55.7449C55.7449 25.6577 54.0993 20.9013 50.2746 17.633L46.0937 22.107ZM49.4704 31.3V35.08H55.7449V31.3H49.4704ZM49.4704 35.08C49.4704 37.9688 49.2562 40.1527 48.8886 41.7092L55.0091 43.0308C55.5199 40.8673 55.7449 38.1912 55.7449 35.08H49.4704ZM48.8886 41.7092C48.5026 43.344 47.9665 44.7285 47.3079 45.8912L52.8251 48.7488C53.7979 47.0315 54.5167 45.116 55.0091 43.0308L48.8886 41.7092ZM47.3079 45.8912C46.5783 47.1792 45.3107 49.0783 43.4465 51.6335L48.5924 55.0665C50.4929 52.4617 51.9233 50.3408 52.8251 48.7488L47.3079 45.8912ZM43.4591 51.6162L29.5297 70.426L34.6503 73.894L48.5798 55.0837L43.4591 51.6162ZM32.09 75.16H54.49V69.16H32.09V75.16ZM51.3528 72.16V79H57.6273V72.16H51.3528ZM54.49 76H23.4312V82H54.49V76ZM26.5685 79V71.08H20.2939V79H26.5685ZM25.9992 72.8032L41.0581 52.2833L35.922 48.8367L20.8632 69.3568L25.9992 72.8032ZM80.1879 55.78L77.5777 54.1159L77.0507 54.8717V55.78H80.1879ZM80.1879 79V82H83.3252V79H80.1879ZM71.9997 79H68.8624V82H71.9997V79ZM71.9997 16V13H68.8624V16H71.9997ZM80.1879 16H83.3252V13H80.1879V16ZM80.1879 43.18H77.0507V53.5821L82.8433 44.7776L80.1879 43.18ZM98.0703 16V13H96.3372L95.4149 14.4024L98.0703 16ZM107.011 16L109.672 17.5893L112.67 13H107.011V16ZM88.8467 43.81L86.1857 42.2207L85.2326 43.6796L86.0684 45.203L88.8467 43.81ZM108.141 79V82H113.328L110.919 77.6068L108.141 79ZM98.7291 79L95.9281 80.3518L96.7984 82H98.7291V79ZM83.7644 50.65L86.5647 49.2981L84.1396 44.7033L81.1542 48.9859L83.7644 50.65ZM77.0507 55.78V79H83.3252V55.78H77.0507ZM80.1879 76H71.9997V82H80.1879V76ZM75.1369 79V16H68.8624V79H75.1369ZM71.9997 19H80.1879V13H71.9997V19ZM77.0507 16V43.18H83.3252V16H77.0507ZM82.8433 44.7776L100.726 17.5976L95.4149 14.4024L77.5325 41.5824L82.8433 44.7776ZM98.0703 19H107.011V13H98.0703V19ZM104.35 14.4107L86.1857 42.2207L91.5078 45.3993L109.672 17.5893L104.35 14.4107ZM86.0684 45.203L105.362 80.3932L110.919 77.6068L91.6251 42.417L86.0684 45.203ZM108.141 76H98.7291V82H108.141V76ZM101.529 77.6482L86.5647 49.2981L80.9634 52.0019L95.9281 80.3518L101.529 77.6482ZM81.1542 48.9859L77.5777 54.1159L82.7981 57.4441L86.3746 52.3141L81.1542 48.9859ZM145.039 16H148.176V13H145.039V16ZM145.039 24.1V27.1H148.176V24.1H145.039ZM136.098 24.1H132.96V27.1H136.098V24.1ZM136.098 16V13H132.96V16H136.098ZM122.733 40.75H119.596V43.75H122.733V40.75ZM122.733 34V31H119.596V34H122.733ZM144.568 34H147.705V31H144.568V34ZM144.568 72.25H141.431V75.25H144.568V72.25ZM158.498 72.25H161.635V69.25H158.498V72.25ZM158.498 79V82H161.635V79H158.498ZM136.568 79H133.431V82H136.568V79ZM136.568 40.75H139.705V37.75H136.568V40.75ZM141.901 16V24.1H148.176V16H141.901ZM145.039 21.1H136.098V27.1H145.039V21.1ZM139.235 24.1V16H132.96V24.1H139.235ZM136.098 19H145.039V13H136.098V19ZM125.87 40.75V34H119.596V40.75H125.87ZM122.733 37H144.568V31H122.733V37ZM141.431 34V72.25H147.705V34H141.431ZM144.568 75.25H158.498V69.25H144.568V75.25ZM155.36 72.25V79H161.635V72.25H155.36ZM158.498 76H136.568V82H158.498V76ZM139.705 79V40.75H133.431V79H139.705ZM136.568 37.75H122.733V43.75H136.568V37.75ZM181.748 34H184.886V31H181.748V34ZM181.748 36.16H178.611V42.2766L183.668 38.5322L181.748 36.16ZM204.901 37.42L202.712 39.5688L202.74 39.595L204.901 37.42ZM208.666 79V82H211.803V79H208.666ZM200.666 79H197.529V82H200.666V79ZM198.972 42.37L196.691 44.4299L196.753 44.4922L196.817 44.5511L198.972 42.37ZM183.725 42.37L186.009 44.4261L186.04 44.395L186.07 44.3631L183.725 42.37ZM182.219 79V82H185.356V79H182.219ZM174.219 79H171.082V82H174.219V79ZM174.219 34V31H171.082V34H174.219ZM178.611 34V36.16H184.886V34H178.611ZM183.668 38.5322C184.939 37.5919 186.721 37 189.278 37V31C185.685 31 182.447 31.8481 179.828 33.7878L183.668 38.5322ZM189.278 37H193.607V31H189.278V37ZM193.607 37C198.265 37 201.082 38.0505 202.712 39.5687L207.09 35.2713C203.826 32.2295 199.113 31 193.607 31V37ZM202.74 39.595C204.364 41.0705 205.529 43.7569 205.529 48.4H211.803C211.803 42.9631 210.457 38.3295 207.062 35.245L202.74 39.595ZM205.529 48.4V79H211.803V48.4H205.529ZM208.666 76H200.666V82H208.666V76ZM203.803 79V46.6H197.529V79H203.803ZM203.803 46.6C203.803 44.1627 203.013 41.8931 201.126 40.1889L196.817 44.5511C197.189 44.8869 197.529 45.4373 197.529 46.6H203.803ZM201.253 40.3101C199.47 38.5058 197.097 37.75 194.548 37.75V43.75C195.764 43.75 196.34 44.0742 196.691 44.4299L201.253 40.3101ZM194.548 37.75H188.337V43.75H194.548V37.75ZM188.337 37.75C185.716 37.75 183.176 38.445 181.38 40.3769L186.07 44.3631C186.282 44.135 186.816 43.75 188.337 43.75V37.75ZM181.44 40.3139C179.987 41.7908 179.082 43.6092 179.082 45.7H185.356C185.356 45.3908 185.455 44.9892 186.009 44.4261L181.44 40.3139ZM179.082 45.7V79H185.356V45.7H179.082ZM182.219 76H174.219V82H182.219V76ZM177.356 79V34H171.082V79H177.356ZM174.219 37H181.748V31H174.219V37ZM256.952 91.24L254.984 88.9024L254.92 88.954L256.952 91.24ZM225.516 94.3H222.379V97.3H225.516V94.3ZM225.516 87.55V84.55H222.379V87.55H225.516ZM251.116 86.29L249.191 83.9218L251.116 86.29ZM251.116 76.93L249.191 79.2982L249.235 79.3306L249.28 79.3618L251.116 76.93ZM229.752 75.67H226.614V78.67H229.752V75.67ZM229.752 63.25H232.889V61.4692L231.254 60.6163L229.752 63.25ZM225.14 58.57L227.979 57.2926L225.14 58.57ZM227.493 37.42L225.388 35.1953L225.361 35.2197L227.493 37.42ZM259.399 34H262.536V31H259.399V34ZM255.54 61.27L257.785 63.3658L257.811 63.34L255.54 61.27ZM237.752 65.05V62.05H234.614V65.05H237.752ZM237.752 68.92H234.614V71.92H237.752V68.92ZM256.952 71.98L254.919 74.2666L254.984 74.317L256.952 71.98ZM249.704 56.5L252.155 58.3741L249.704 56.5ZM251.399 52.72L254.523 52.9916L254.536 52.8561V52.72H251.399ZM251.399 40.75H254.536V37.75H251.399V40.75ZM233.422 42.28L235.514 44.5157L233.422 42.28ZM233.422 56.77L235.514 54.5343L233.422 56.77ZM257.673 82.15C257.673 85.609 256.611 87.6508 254.984 88.903L258.919 93.577C262.437 90.8692 263.948 86.851 263.948 82.15H257.673ZM254.92 88.954C253.242 90.3184 250.187 91.3 245.093 91.3V97.3C250.791 97.3 255.642 96.2416 258.984 93.526L254.92 88.954ZM245.093 91.3H225.516V97.3H245.093V91.3ZM228.653 94.3V87.55H222.379V94.3H228.653ZM225.516 90.55H246.034V84.55H225.516V90.55ZM246.034 90.55C248.613 90.55 251.124 90.0844 253.043 88.6582L249.191 83.9218C248.85 84.1756 247.973 84.55 246.034 84.55V90.55ZM253.043 88.6582C254.904 87.274 255.948 85.3342 255.948 83.05H249.673C249.673 83.4058 249.588 83.626 249.191 83.9218L253.043 88.6582ZM255.948 83.05V80.17H249.673V83.05H255.948ZM255.948 80.17C255.948 77.8678 254.934 75.8656 252.953 74.4982L249.28 79.3618C249.558 79.5544 249.673 79.7122 249.673 80.17H255.948ZM253.043 74.5618C251.124 73.1356 248.613 72.67 246.034 72.67V78.67C247.973 78.67 248.85 79.0444 249.191 79.2982L253.043 74.5618ZM246.034 72.67H229.752V78.67H246.034V72.67ZM232.889 75.67V63.25H226.614V75.67H232.889ZM231.254 60.6163C229.768 59.8412 228.699 58.7561 227.979 57.2926L222.301 59.8474C223.589 62.464 225.595 64.4986 228.249 65.8834L231.254 60.6163ZM227.979 57.2926C227.238 55.7874 226.771 53.6273 226.771 50.65H220.497C220.497 54.1527 221.034 57.2726 222.301 59.8474L227.979 57.2926ZM226.771 50.65V48.4H220.497V50.65H226.771ZM226.771 48.4C226.771 43.7757 227.957 41.0994 229.625 39.6203L225.361 35.2197C221.884 38.3006 220.497 42.9443 220.497 48.4H226.771ZM229.598 39.6446C231.415 38.0724 234.551 37 239.634 37V31C233.8 31 228.842 32.2076 225.388 35.1954L229.598 39.6446ZM239.634 37H259.399V31H239.634V37ZM256.261 34V50.65H262.536V34H256.261ZM256.261 50.65C256.261 54.5904 255.15 57.314 253.27 59.1998L257.811 63.34C261.075 60.066 262.536 55.7096 262.536 50.65H256.261ZM253.295 59.1744C251.407 61.0234 248.848 62.05 245.281 62.05V68.05C250.247 68.05 254.528 66.5566 257.785 63.3658L253.295 59.1744ZM245.281 62.05H237.752V68.05H245.281V62.05ZM234.614 65.05V68.92H240.889V65.05H234.614ZM237.752 71.92H245.093V65.92H237.752V71.92ZM245.093 71.92C250.187 71.92 253.242 72.9016 254.92 74.266L258.984 69.694C255.642 66.9784 250.791 65.92 245.093 65.92V71.92ZM254.984 74.317C256.611 75.5692 257.673 77.611 257.673 81.07H263.948C263.948 76.369 262.437 72.3508 258.919 69.643L254.984 74.317ZM257.673 81.07V82.15H263.948V81.07H257.673ZM245.281 61.3C247.957 61.3 250.429 60.4365 252.155 58.3741L247.255 54.6259C246.973 54.9635 246.496 55.3 245.281 55.3V61.3ZM252.155 58.3741C253.48 56.7898 254.334 54.9864 254.523 52.9916L248.275 52.4484C248.213 53.0936 247.938 53.8103 247.255 54.6259L252.155 58.3741ZM254.536 52.72V40.75H248.261V52.72H254.536ZM251.399 37.75H238.693V43.75H251.399V37.75ZM238.693 37.75C235.943 37.75 233.31 38.3502 231.33 40.0443L235.514 44.5157C235.919 44.1698 236.8 43.75 238.693 43.75V37.75ZM231.33 40.0443C229.332 41.7543 228.497 44.0865 228.497 46.6H234.771C234.771 45.3935 235.129 44.8457 235.514 44.5157L231.33 40.0443ZM228.497 46.6V52.45H234.771V46.6H228.497ZM228.497 52.45C228.497 54.9635 229.332 57.2957 231.33 59.0057L235.514 54.5343C235.129 54.2043 234.771 53.6565 234.771 52.45H228.497ZM231.33 59.0057C233.31 60.6998 235.943 61.3 238.693 61.3V55.3C236.8 55.3 235.919 54.8802 235.514 54.5343L231.33 59.0057ZM238.693 61.3H245.281V55.3H238.693V61.3ZM303.732 76.21L301.78 73.8616L301.749 73.8856L303.732 76.21ZM279.261 79H276.124V82H279.261V79ZM279.261 72.25V69.25H276.124V72.25H279.261ZM298.085 71.26L300.023 73.6192L300.076 73.5796L300.126 73.5376L298.085 71.26ZM281.991 56.68L279.877 58.8969L279.912 58.9278L279.949 58.9578L281.991 56.68ZM282.367 36.7L284.271 39.0852L284.312 39.0546L282.367 36.7ZM305.52 34H308.657V31H305.52V34ZM305.52 40.75V43.75H308.657V40.75H305.52ZM288.202 41.83L290.058 44.2492L290.111 44.2119L290.163 44.1726L288.202 41.83ZM288.014 51.1L285.988 53.3901L286.031 53.4253L286.076 53.459L288.014 51.1ZM304.108 55.06L301.956 57.243L301.991 57.2741L304.108 55.06ZM304.265 67.75C304.265 70.8802 303.286 72.7174 301.78 73.8616L305.684 78.5584C309.073 75.9826 310.54 72.1798 310.54 67.75H304.265ZM301.749 73.8856C300.141 75.1396 297.483 76 293.285 76V82C298.248 82 302.554 81.0004 305.715 78.5344L301.749 73.8856ZM293.285 76H279.261V82H293.285V76ZM282.398 79V72.25H276.124V79H282.398ZM279.261 75.25H294.226V69.25H279.261V75.25ZM294.226 75.25C296.278 75.25 298.371 74.8606 300.023 73.6192L296.147 68.9008C296.042 68.9794 295.563 69.25 294.226 69.25V75.25ZM300.126 73.5376C301.836 72.1372 302.54 70.21 302.54 68.2H296.265C296.265 68.83 296.091 68.9428 296.043 68.9824L300.126 73.5376ZM302.54 68.2V63.43H296.265V68.2H302.54ZM302.54 63.43C302.54 61.651 302.098 59.7596 300.659 58.3199C299.195 56.8548 297.225 56.38 295.355 56.38V62.38C296.184 62.38 296.237 62.5804 296.123 62.4652C296.033 62.3752 296.265 62.509 296.265 63.43H302.54ZM295.355 56.38H291.873V62.38H295.355V56.38ZM291.873 56.38C287.857 56.38 285.429 55.5471 284.032 54.4022L279.949 58.9578C282.944 61.4128 287.106 62.38 291.873 62.38V56.38ZM284.104 54.4631C282.865 53.3823 281.928 51.4403 281.928 47.95H275.653C275.653 52.3797 276.85 56.2577 279.877 58.8969L284.104 54.4631ZM281.928 47.95V45.34H275.653V47.95H281.928ZM281.928 45.34C281.928 41.8567 282.944 40.0527 284.271 39.0849L280.464 34.3151C277.022 36.8273 275.653 40.7833 275.653 45.34H281.928ZM284.312 39.0546C285.917 37.8427 288.617 37 292.908 37V31C287.914 31 283.587 31.9573 280.423 34.3454L284.312 39.0546ZM292.908 37H305.52V31H292.908V37ZM302.383 34V40.75H308.657V34H302.383ZM305.52 37.75H291.967V43.75H305.52V37.75ZM291.967 37.75C289.903 37.75 287.889 38.2283 286.243 39.4874L290.163 44.1726C290.399 43.9917 290.894 43.75 291.967 43.75V37.75ZM286.347 39.4108C284.446 40.7436 283.653 42.7224 283.653 44.8H289.928C289.928 44.4785 289.985 44.3399 290 44.3089C290.008 44.2928 290.012 44.288 290.013 44.2866C290.014 44.2848 290.026 44.2718 290.058 44.2492L286.347 39.4108ZM283.653 44.8V48.04H289.928V44.8H283.653ZM283.653 48.04C283.653 49.9755 284.242 51.9782 285.988 53.3901L290.041 48.8099C290.065 48.8291 290.055 48.8394 290.027 48.7686C289.991 48.6776 289.928 48.4563 289.928 48.04H283.653ZM286.076 53.459C287.603 54.6056 289.419 55.09 291.308 55.09V49.09C290.563 49.09 290.183 48.9144 289.952 48.741L286.076 53.459ZM291.308 55.09H294.508V49.09H291.308V55.09ZM294.508 55.09C298.229 55.09 300.538 55.964 301.956 57.2427L306.26 52.8772C303.287 50.196 299.196 49.09 294.508 49.09V55.09ZM301.991 57.2741C303.333 58.4471 304.265 60.3951 304.265 63.7H310.54C310.54 59.3249 309.276 55.5129 306.225 52.8459L301.991 57.2741ZM304.265 63.7V67.75H310.54V63.7H304.265Z" fill="black"/>
</svg>
