<svg width="48" height="49" viewBox="0 0 48 49" fill="none" xmlns="http://www.w3.org/2000/svg">
<path d="M16.0548 39.4547C16.0548 39.6574 15.8323 39.8195 15.5516 39.8195C15.2323 39.8499 15.0097 39.6878 15.0097 39.4547C15.0097 39.2521 15.2323 39.09 15.5129 39.09C15.8032 39.0596 16.0548 39.2217 16.0548 39.4547ZM13.0452 38.9988C12.9774 39.2014 13.171 39.4345 13.4613 39.4953C13.7129 39.5966 14.0032 39.4953 14.0613 39.2926C14.1194 39.09 13.9355 38.8569 13.6452 38.7657C13.3935 38.6948 13.1129 38.7961 13.0452 38.9988ZM17.3226 38.8265C17.0419 38.8975 16.8484 39.09 16.8774 39.323C16.9065 39.5257 17.1581 39.6574 17.4484 39.5864C17.729 39.5155 17.9226 39.323 17.8935 39.1204C17.8645 38.9279 17.6032 38.7961 17.3226 38.8265ZM23.6903 0C10.2677 0 0 10.6692 0 24.7225C0 35.9591 6.75484 45.5746 16.4032 48.9587C17.6419 49.1918 18.0774 48.3913 18.0774 47.7327C18.0774 47.1045 18.0484 43.6393 18.0484 41.5116C18.0484 41.5116 11.2742 43.0314 9.85161 38.4922C9.85161 38.4922 8.74839 35.5437 7.16129 34.7838C7.16129 34.7838 4.94516 33.193 7.31613 33.2234C7.31613 33.2234 9.72581 33.4261 11.0516 35.8375C13.171 39.7486 16.7226 38.6239 18.1065 37.9552C18.329 36.334 18.9581 35.2093 19.6548 34.5406C14.2452 33.9124 8.7871 33.0917 8.7871 23.3446C8.7871 20.5582 9.52258 19.16 11.071 17.3767C10.8194 16.7181 9.99677 14.0027 11.3226 10.4969C13.3452 9.83835 18 13.2326 18 13.2326C19.9355 12.6652 22.0161 12.3714 24.0774 12.3714C26.1387 12.3714 28.2194 12.6652 30.1548 13.2326C30.1548 13.2326 34.8097 9.82822 36.8323 10.4969C38.1581 14.0128 37.3355 16.7181 37.0839 17.3767C38.6323 19.1701 39.5806 20.5683 39.5806 23.3446C39.5806 33.1221 33.8806 33.9023 28.471 34.5406C29.3613 35.3411 30.1161 36.8609 30.1161 39.2419C30.1161 42.6565 30.0871 46.8816 30.0871 47.7125C30.0871 48.371 30.5323 49.1715 31.7613 48.9385C41.4387 45.5746 48 35.9591 48 24.7225C48 10.6692 37.1129 0 23.6903 0ZM9.40645 34.9459C9.28064 35.0472 9.30968 35.2803 9.47419 35.4728C9.62903 35.6349 9.85161 35.7058 9.97742 35.5741C10.1032 35.4728 10.0742 35.2397 9.90968 35.0472C9.75484 34.8851 9.53226 34.8142 9.40645 34.9459ZM8.36129 34.1252C8.29355 34.2569 8.39032 34.419 8.58387 34.5204C8.73871 34.6217 8.93226 34.5913 9 34.4494C9.06774 34.3177 8.97097 34.1556 8.77742 34.0543C8.58387 33.9935 8.42903 34.0239 8.36129 34.1252ZM11.4968 37.7323C11.3419 37.864 11.4 38.1679 11.6226 38.3605C11.8452 38.5935 12.1258 38.6239 12.2516 38.4618C12.3774 38.3301 12.3194 38.0261 12.1258 37.8336C11.9129 37.6005 11.6226 37.5701 11.4968 37.7323ZM10.3935 36.2428C10.2387 36.3441 10.2387 36.6076 10.3935 36.8406C10.5484 37.0737 10.8097 37.175 10.9355 37.0737C11.0903 36.9419 11.0903 36.6785 10.9355 36.4455C10.8 36.2124 10.5484 36.1111 10.3935 36.2428Z" fill="black"/>
</svg>
