<svg width="51" height="49" viewBox="0 0 51 49" fill="none" xmlns="http://www.w3.org/2000/svg">
<path d="M25.5057 11.937C18.2695 11.937 12.4328 17.5461 12.4328 24.5C12.4328 31.4539 18.2695 37.063 25.5057 37.063C32.7418 37.063 38.5785 31.4539 38.5785 24.5C38.5785 17.5461 32.7418 11.937 25.5057 11.937ZM25.5057 32.6676C20.8295 32.6676 17.0066 29.0047 17.0066 24.5C17.0066 19.9953 20.8181 16.3324 25.5057 16.3324C30.1933 16.3324 34.0047 19.9953 34.0047 24.5C34.0047 29.0047 30.1819 32.6676 25.5057 32.6676V32.6676ZM42.1625 11.4231C42.1625 13.0523 40.7972 14.3534 39.1133 14.3534C37.418 14.3534 36.0641 13.0413 36.0641 11.4231C36.0641 9.80492 37.4294 8.49286 39.1133 8.49286C40.7972 8.49286 42.1625 9.80492 42.1625 11.4231ZM50.8208 14.3971C50.6274 10.4719 49.6944 6.99492 46.7021 4.13026C43.7212 1.26559 40.1031 0.369017 36.0186 0.172208C31.8089 -0.0574027 19.1911 -0.0574027 14.9814 0.172208C10.9083 0.358083 7.29018 1.25466 4.29788 4.11932C1.30558 6.98399 0.383993 10.461 0.179197 14.3862C-0.0597323 18.4317 -0.0597323 30.5573 0.179197 34.6029C0.372616 38.5281 1.30558 42.0051 4.29788 44.8697C7.29018 47.7344 10.8969 48.631 14.9814 48.8278C19.1911 49.0574 31.8089 49.0574 36.0186 48.8278C40.1031 48.6419 43.7212 47.7453 46.7021 44.8697C49.683 42.0051 50.616 38.5281 50.8208 34.6029C51.0597 30.5573 51.0597 18.4427 50.8208 14.3971V14.3971ZM45.3823 38.9436C44.4949 41.0866 42.7769 42.7376 40.5355 43.6014C37.1791 44.8807 29.2148 44.5855 25.5057 44.5855C21.7966 44.5855 13.8209 44.8697 10.4759 43.6014C8.2459 42.7486 6.52789 41.0976 5.62906 38.9436C4.29788 35.7181 4.60508 28.0644 4.60508 24.5C4.60508 20.9356 4.30926 13.2709 5.62906 10.0564C6.51651 7.91337 8.23452 6.26236 10.4759 5.39858C13.8323 4.11932 21.7966 4.41454 25.5057 4.41454C29.2148 4.41454 37.1905 4.13026 40.5355 5.39858C42.7655 6.25142 44.4835 7.90243 45.3823 10.0564C46.7135 13.2819 46.4063 20.9356 46.4063 24.5C46.4063 28.0644 46.7135 35.7291 45.3823 38.9436Z" fill="black"/>
<path d="M25.5057 11.937C18.2695 11.937 12.4328 17.5461 12.4328 24.5C12.4328 31.4539 18.2695 37.063 25.5057 37.063C32.7418 37.063 38.5785 31.4539 38.5785 24.5C38.5785 17.5461 32.7418 11.937 25.5057 11.937ZM25.5057 32.6676C20.8295 32.6676 17.0066 29.0047 17.0066 24.5C17.0066 19.9953 20.8181 16.3324 25.5057 16.3324C30.1933 16.3324 34.0047 19.9953 34.0047 24.5C34.0047 29.0047 30.1819 32.6676 25.5057 32.6676V32.6676ZM42.1625 11.4231C42.1625 13.0523 40.7972 14.3534 39.1133 14.3534C37.418 14.3534 36.0641 13.0413 36.0641 11.4231C36.0641 9.80492 37.4294 8.49286 39.1133 8.49286C40.7972 8.49286 42.1625 9.80492 42.1625 11.4231ZM50.8208 14.3971C50.6274 10.4719 49.6944 6.99492 46.7021 4.13026C43.7212 1.26559 40.1031 0.369017 36.0186 0.172208C31.8089 -0.0574027 19.1911 -0.0574027 14.9814 0.172208C10.9083 0.358083 7.29018 1.25466 4.29788 4.11932C1.30558 6.98399 0.383993 10.461 0.179197 14.3862C-0.0597323 18.4317 -0.0597323 30.5573 0.179197 34.6029C0.372616 38.5281 1.30558 42.0051 4.29788 44.8697C7.29018 47.7344 10.8969 48.631 14.9814 48.8278C19.1911 49.0574 31.8089 49.0574 36.0186 48.8278C40.1031 48.6419 43.7212 47.7453 46.7021 44.8697C49.683 42.0051 50.616 38.5281 50.8208 34.6029C51.0597 30.5573 51.0597 18.4427 50.8208 14.3971V14.3971ZM45.3823 38.9436C44.4949 41.0866 42.7769 42.7376 40.5355 43.6014C37.1791 44.8807 29.2148 44.5855 25.5057 44.5855C21.7966 44.5855 13.8209 44.8697 10.4759 43.6014C8.2459 42.7486 6.52789 41.0976 5.62906 38.9436C4.29788 35.7181 4.60508 28.0644 4.60508 24.5C4.60508 20.9356 4.30926 13.2709 5.62906 10.0564C6.51651 7.91337 8.23452 6.26236 10.4759 5.39858C13.8323 4.11932 21.7966 4.41454 25.5057 4.41454C29.2148 4.41454 37.1905 4.13026 40.5355 5.39858C42.7655 6.25142 44.4835 7.90243 45.3823 10.0564C46.7135 13.2819 46.4063 20.9356 46.4063 24.5C46.4063 28.0644 46.7135 35.7291 45.3823 38.9436Z" fill="url(#paint0_linear)"/>
<path d="M25.5057 11.937C18.2695 11.937 12.4328 17.5461 12.4328 24.5C12.4328 31.4539 18.2695 37.063 25.5057 37.063C32.7418 37.063 38.5785 31.4539 38.5785 24.5C38.5785 17.5461 32.7418 11.937 25.5057 11.937ZM25.5057 32.6676C20.8295 32.6676 17.0066 29.0047 17.0066 24.5C17.0066 19.9953 20.8181 16.3324 25.5057 16.3324C30.1933 16.3324 34.0047 19.9953 34.0047 24.5C34.0047 29.0047 30.1819 32.6676 25.5057 32.6676V32.6676ZM42.1625 11.4231C42.1625 13.0523 40.7972 14.3534 39.1133 14.3534C37.418 14.3534 36.0641 13.0413 36.0641 11.4231C36.0641 9.80492 37.4294 8.49286 39.1133 8.49286C40.7972 8.49286 42.1625 9.80492 42.1625 11.4231ZM50.8208 14.3971C50.6274 10.4719 49.6944 6.99492 46.7021 4.13026C43.7212 1.26559 40.1031 0.369017 36.0186 0.172208C31.8089 -0.0574027 19.1911 -0.0574027 14.9814 0.172208C10.9083 0.358083 7.29018 1.25466 4.29788 4.11932C1.30558 6.98399 0.383993 10.461 0.179197 14.3862C-0.0597323 18.4317 -0.0597323 30.5573 0.179197 34.6029C0.372616 38.5281 1.30558 42.0051 4.29788 44.8697C7.29018 47.7344 10.8969 48.631 14.9814 48.8278C19.1911 49.0574 31.8089 49.0574 36.0186 48.8278C40.1031 48.6419 43.7212 47.7453 46.7021 44.8697C49.683 42.0051 50.616 38.5281 50.8208 34.6029C51.0597 30.5573 51.0597 18.4427 50.8208 14.3971V14.3971ZM45.3823 38.9436C44.4949 41.0866 42.7769 42.7376 40.5355 43.6014C37.1791 44.8807 29.2148 44.5855 25.5057 44.5855C21.7966 44.5855 13.8209 44.8697 10.4759 43.6014C8.2459 42.7486 6.52789 41.0976 5.62906 38.9436C4.29788 35.7181 4.60508 28.0644 4.60508 24.5C4.60508 20.9356 4.30926 13.2709 5.62906 10.0564C6.51651 7.91337 8.23452 6.26236 10.4759 5.39858C13.8323 4.11932 21.7966 4.41454 25.5057 4.41454C29.2148 4.41454 37.1905 4.13026 40.5355 5.39858C42.7655 6.25142 44.4835 7.90243 45.3823 10.0564C46.7135 13.2819 46.4063 20.9356 46.4063 24.5C46.4063 28.0644 46.7135 35.7291 45.3823 38.9436Z" fill="url(#paint1_linear)"/>
<defs>
<linearGradient id="paint0_linear" x1="33.15" y1="14.8021" x2="13.2404" y2="39.2862" gradientUnits="userSpaceOnUse">
<stop stop-color="#5654D1"/>
<stop offset="0.793586" stop-color="#FEDA77"/>
</linearGradient>
<linearGradient id="paint1_linear" x1="-1.79579e-07" y1="9.1875" x2="51.012" y2="30.0853" gradientUnits="userSpaceOnUse">
<stop stop-color="#FF0000" stop-opacity="0.69"/>
<stop offset="1" stop-color="#FF0000" stop-opacity="0.29"/>
</linearGradient>
</defs>
</svg>
