<svg width="57" height="45" viewBox="0 0 57 45" fill="none" xmlns="http://www.w3.org/2000/svg">
<path d="M55.8089 7.04098C55.1534 4.26949 53.2219 2.08676 50.7695 1.34602C46.3244 0 28.5 0 28.5 0C28.5 0 10.6757 0 6.23047 1.34602C3.77809 2.08688 1.84662 4.26949 1.19107 7.04098C0 12.0645 0 22.5455 0 22.5455C0 22.5455 0 33.0265 1.19107 38.05C1.84662 40.8214 3.77809 42.9132 6.23047 43.654C10.6757 45 28.5 45 28.5 45C28.5 45 46.3243 45 50.7695 43.654C53.2219 42.9132 55.1534 40.8214 55.8089 38.05C57 33.0265 57 22.5455 57 22.5455C57 22.5455 57 12.0645 55.8089 7.04098V7.04098ZM22.6704 32.0614V13.0295L37.5681 22.5457L22.6704 32.0614V32.0614Z" fill="#FF0000"/>
</svg>
